<svg xmlns="http://www.w3.org/2000/svg" xmlns:xlink="http://www.w3.org/1999/xlink" width="1033.957" height="283.73" viewBox="0 0 1033.957 283.73">
  <defs>
    <radialGradient id="radial-gradient" cx="0.501" cy="0.501" r="0.54" gradientTransform="translate(0.067) scale(0.866 1)" gradientUnits="objectBoundingBox">
      <stop offset="0.486" stop-color="#44aee3"/>
      <stop offset="1" stop-color="#3d6cb4"/>
    </radialGradient>
    <radialGradient id="radial-gradient-2" cx="0.499" cy="0.5" r="0.54" gradientTransform="translate(0.067) scale(0.866 1)" gradientUnits="objectBoundingBox">
      <stop offset="0.486" stop-color="#fbdc0e"/>
      <stop offset="1" stop-color="#faa21e"/>
    </radialGradient>
    <radialGradient id="radial-gradient-3" cx="0.499" cy="0.5" r="0.54" gradientTransform="translate(0.067) scale(0.866 1)" gradientUnits="objectBoundingBox">
      <stop offset="0.486" stop-color="#d3de29"/>
      <stop offset="1" stop-color="#a2cd3a"/>
    </radialGradient>
  </defs>
  <g id="Full_Color_Black_Text_W_Shadow" data-name="Full Color Black Text W Shadow" transform="translate(-2419 1802)">
    <g id="Full_Color_Black_Text_W_Shadow-2" data-name="Full Color Black Text W Shadow" transform="translate(2419 -1802)">
      <path id="Path_52" data-name="Path 52" d="M117.682,20.1H40.5L2.1,86.938l38.4,66.469h77.177l38.4-66.469Z" transform="translate(5.655 54.123)" fill="#565857"/>
      <path id="Path_53" data-name="Path 53" d="M156.086,86.938h0L117.682,20.1H40.5L2.1,86.938H156.086Z" transform="translate(5.655 54.123)" fill="#979696"/>
      <path id="Path_54" data-name="Path 54" d="M154.351,40.3H76.8L38.4,107.507l38.4,66.838h77.547l38.4-66.838Z" transform="translate(103.4 108.516)" fill="#565857"/>
      <path id="Path_55" data-name="Path 55" d="M192.755,107.507h0L154.351,40.3H76.8L38.4,107.507H192.755Z" transform="translate(103.4 108.516)" fill="#979696"/>
      <path id="Path_56" data-name="Path 56" d="M154.351,0H76.8L38.4,66.838l38.4,67.207h77.547l38.4-67.207Z" transform="translate(103.4 0)" fill="#565857"/>
      <path id="Path_57" data-name="Path 57" d="M192.755,66.838h0L154.351,0H76.8L38.4,66.838H192.755Z" transform="translate(103.4 0)" fill="#979696"/>
      <g id="Group_235" data-name="Group 235" transform="translate(318.68 74.466)">
        <g id="Group_233" data-name="Group 233" transform="translate(173.557 31.019)">
          <path id="Path_58" data-name="Path 58" d="M197.553,20.769v5.908H148.809V59.543h32.5v5.908h-32.5v41.358h48.744v5.908H133.3V20.4h64.253Z" transform="translate(-133.3 -18.554)"/>
          <path id="Path_59" data-name="Path 59" d="M155.4,20.5h31.757a59.82,59.82,0,0,1,14.771,1.846,27.207,27.207,0,0,1,10.34,5.17,20.862,20.862,0,0,1,6.278,7.755,21.545,21.545,0,0,1,2.216,9.6A19.873,19.873,0,0,1,219.284,53a20.954,20.954,0,0,1-4.431,6.647,34.53,34.53,0,0,1-7.016,5.17,39.288,39.288,0,0,1-9.232,3.323l33.6,44.682H214.114L181.988,69.244H171.279v43.574H155.769V20.5Zm15.509,44.312h8.862a27.535,27.535,0,0,0,9.6-1.477,25.793,25.793,0,0,0,7.755-4.062A21.4,21.4,0,0,0,202.3,53a20.124,20.124,0,0,0,1.846-8.124,19.286,19.286,0,0,0-1.477-7.755c-1.108-2.216-2.216-4.431-4.062-5.908a17.666,17.666,0,0,0-6.278-3.693,18.161,18.161,0,0,0-7.755-1.477H170.909Z" transform="translate(-73.791 -18.284)"/>
          <path id="Path_60" data-name="Path 60" d="M195.386,68.644A50.23,50.23,0,0,0,198.34,86a30.967,30.967,0,0,0,8.124,12.924,30.791,30.791,0,0,0,12.186,8.124A40.953,40.953,0,0,0,233.79,110a25.712,25.712,0,0,0,9.232-1.846,38.627,38.627,0,0,0,8.493-4.8c2.585-1.846,4.8-4.431,7.016-6.647,1.846-2.585,3.693-5.17,5.17-7.755l6.647,4.062a69.29,69.29,0,0,1-6.647,8.863,44.552,44.552,0,0,1-8.862,7.755,40.275,40.275,0,0,1-11.447,5.17,45.331,45.331,0,0,1-14.4,1.846,59.085,59.085,0,0,1-14.4-1.846,73.442,73.442,0,0,1-12.555-4.8,51.505,51.505,0,0,1-9.97-7.755A47.551,47.551,0,0,1,179.877,81.2a48.277,48.277,0,0,1,.369-25.11,44.324,44.324,0,0,1,4.8-11.447,51.505,51.505,0,0,1,7.755-9.97,54.045,54.045,0,0,1,10.34-7.755c3.693-2.216,8.124-3.693,12.555-5.17A59.085,59.085,0,0,1,230.1,19.9a55.436,55.436,0,0,1,13.663,1.846,63.892,63.892,0,0,1,11.447,5.17,60.482,60.482,0,0,1,9.232,7.755,69.289,69.289,0,0,1,6.647,8.862l-6.647,4.431c-4.062-7.385-8.124-12.924-12.924-16.248a28.322,28.322,0,0,0-16.248-5.17,42.478,42.478,0,0,0-15.14,2.954,31.613,31.613,0,0,0-12.186,8.493,40.2,40.2,0,0,0-8.124,13.294C196.494,56.458,195.386,62.366,195.386,68.644Z" transform="translate(-11.859 -19.9)"/>
          <path id="Path_61" data-name="Path 61" d="M208.169,20.5h15.509V80.322A34.81,34.81,0,0,0,225.525,91.4a30.329,30.329,0,0,0,5.908,9.232,27.273,27.273,0,0,0,9.232,6.278,30.616,30.616,0,0,0,11.817,2.216,29.332,29.332,0,0,0,11.817-2.216,22.664,22.664,0,0,0,8.862-6.278A21.378,21.378,0,0,0,278.7,91.4c1.477-3.323,1.846-7.016,1.846-11.078V20.5h6.647V80.322a38.625,38.625,0,0,1-2.216,13.294,35.191,35.191,0,0,1-7.016,11.078c-3.323,3.323-7.385,5.539-12.555,7.385s-11.078,2.585-18.464,2.585a49.713,49.713,0,0,1-16.986-2.585,39.78,39.78,0,0,1-12.186-7.385,30.715,30.715,0,0,1-7.385-11.078A33.38,33.38,0,0,1,207.8,79.952V20.5Z" transform="translate(67.306 -18.284)"/>
          <path id="Path_62" data-name="Path 62" d="M235.3,20.5h31.757a59.819,59.819,0,0,1,14.771,1.846,27.207,27.207,0,0,1,10.34,5.17,20.862,20.862,0,0,1,6.278,7.755,21.545,21.545,0,0,1,2.216,9.6A19.873,19.873,0,0,1,299.184,53a20.955,20.955,0,0,1-4.431,6.647,34.532,34.532,0,0,1-7.016,5.17,39.289,39.289,0,0,1-9.232,3.323l33.6,44.682H294.014L261.888,69.244H251.179v43.574H235.669V20.5Zm15.509,44.312h8.862a27.535,27.535,0,0,0,9.6-1.477,25.793,25.793,0,0,0,7.755-4.062A21.4,21.4,0,0,0,282.2,53a20.124,20.124,0,0,0,1.846-8.124,19.286,19.286,0,0,0-1.477-7.755c-1.108-2.216-2.216-4.431-4.062-5.908a17.666,17.666,0,0,0-6.278-3.693,18.161,18.161,0,0,0-7.755-1.477H250.809Z" transform="translate(141.356 -18.284)"/>
          <path id="Path_63" data-name="Path 63" d="M271.979,20.5l32.127,46.9,31.757-46.9h8.493L308.536,72.936v39.881H293.027v-38.4L256.1,20.5h15.879Z" transform="translate(197.364 -18.284)"/>
        </g>
        <g id="Group_234" data-name="Group 234" transform="translate(0 0)">
          <path id="Path_64" data-name="Path 64" d="M86.669,11.5h21.787l49.851,98.226h1.108L208.159,11.5h21.418V139.268H208.159V34.764h-.739l-52.436,104.5h-4.431L97.378,35.5H95.9V139.268H86.3V11.5Z" transform="translate(-86.3 -11.5)"/>
        </g>
      </g>
      <path id="Path_65" data-name="Path 65" d="M115.582,20.1H38.773L0,86.938l38.773,66.469h76.808l38.4-66.469Z" transform="translate(0 54.123)" fill="url(#radial-gradient)"/>
      <path id="Path_66" data-name="Path 66" d="M152.251,40.3H74.7L36.3,107.507l38.4,66.838h77.547l38.773-66.838Z" transform="translate(97.745 108.516)" fill="url(#radial-gradient-2)"/>
      <path id="Path_67" data-name="Path 67" d="M152.251,0H74.7L36.3,66.838l38.4,67.207h77.547l38.773-67.207Z" transform="translate(97.745 0)" fill="url(#radial-gradient-3)"/>
    </g>
    <path id="Path_81" data-name="Path 81" d="M3.967-49.077l6.2-2.466H12.72v30.861A15.782,15.782,0,0,1,15.535-24.2a22.416,22.416,0,0,1,3.8-2.918,20.847,20.847,0,0,1,4.274-1.993,13.494,13.494,0,0,1,4.274-.74,16.052,16.052,0,0,1,7.088,1.562,17.427,17.427,0,0,1,5.568,4.233A19.661,19.661,0,0,1,44.2-17.806a21.967,21.967,0,0,1,1.315,7.643,27.357,27.357,0,0,1-.883,7.006A28.159,28.159,0,0,1,42.163,3.11a25.436,25.436,0,0,1-3.842,5.321,25,25,0,0,1-4.993,4.109,24.213,24.213,0,0,1-5.876,2.65,22.64,22.64,0,0,1-6.554.945,32.783,32.783,0,0,1-9.246-1.274,21.628,21.628,0,0,1-7.684-3.986ZM12.72,7.959a23.6,23.6,0,0,0,1.808,1.623,14.717,14.717,0,0,0,2.178,1.459,12.355,12.355,0,0,0,2.671,1.068,12.44,12.44,0,0,0,3.328.411,10.789,10.789,0,0,0,5.589-1.479,13.379,13.379,0,0,0,4.294-4.13A20.977,20.977,0,0,0,35.362.624a30.317,30.317,0,0,0,.986-7.951,18.528,18.528,0,0,0-1.007-6.164,16.132,16.132,0,0,0-2.753-4.993,13.213,13.213,0,0,0-4.109-3.349,10.728,10.728,0,0,0-5.034-1.233,12.162,12.162,0,0,0-3.061.411,14.618,14.618,0,0,0-3.02,1.151,15.2,15.2,0,0,0-2.65,1.726,10.554,10.554,0,0,0-1.993,2.1Zm41.01-36.9h8.712V-20.6A38.173,38.173,0,0,1,65.2-24.134a23.937,23.937,0,0,1,3.082-2.959,14.765,14.765,0,0,1,3.308-2.014,8.65,8.65,0,0,1,3.472-.74,8.032,8.032,0,0,1,2.671.431,7.538,7.538,0,0,1,2.157,1.151,5.5,5.5,0,0,1,1.459,1.685,4.142,4.142,0,0,1,.534,2.034,3.918,3.918,0,0,1-1.336,3.226,5.729,5.729,0,0,1-3.719,1.089,7.369,7.369,0,0,1-2.363-.308,10.842,10.842,0,0,1-1.6-.7,15.77,15.77,0,0,0-1.459-.7,4.829,4.829,0,0,0-1.849-.308,3.457,3.457,0,0,0-1.746.514,8.157,8.157,0,0,0-1.767,1.438,20.578,20.578,0,0,0-1.788,2.178q-.9,1.253-1.808,2.733V15.191H53.73Zm54.283,45.079a24.33,24.33,0,0,1-9.349-1.767,22.865,22.865,0,0,1-7.4-4.808,21.943,21.943,0,0,1-4.849-7.13A22,22,0,0,1,84.673-6.3a24.143,24.143,0,0,1,1.746-9.184,23.026,23.026,0,0,1,4.849-7.479A22.773,22.773,0,0,1,98.665-28a23.385,23.385,0,0,1,9.349-1.849,25.053,25.053,0,0,1,9.307,1.685,23,23,0,0,1,7.376,4.623,21,21,0,0,1,4.869,6.9,20.818,20.818,0,0,1,1.746,8.486,25.416,25.416,0,0,1-1.746,9.431A23.959,23.959,0,0,1,124.7,9.007a22.987,22.987,0,0,1-7.376,5.219A22.449,22.449,0,0,1,108.014,16.136Zm1.644-3.246a8.842,8.842,0,0,0,4.746-1.336,12.859,12.859,0,0,0,3.739-3.575,17.279,17.279,0,0,0,2.445-5.239,22.782,22.782,0,0,0,.863-6.328,46.439,46.439,0,0,0-.822-8.979,22.9,22.9,0,0,0-2.671-7.294,13.887,13.887,0,0,0-4.808-4.911,13.83,13.83,0,0,0-7.273-1.788,8,8,0,0,0-4.274,1.274,12.714,12.714,0,0,0-3.637,3.493,18.6,18.6,0,0,0-2.527,5.178,20.54,20.54,0,0,0-.945,6.287,38.237,38.237,0,0,0,1.027,9.04A25.487,25.487,0,0,0,98.48,6.089a15.369,15.369,0,0,0,4.767,4.972A11.571,11.571,0,0,0,109.657,12.89Zm62.584,2.3h-8.794V9.151q-1.562,1.192-3.061,2.424a25.314,25.314,0,0,1-3.246,2.26,17.575,17.575,0,0,1-3.863,1.664,17.084,17.084,0,0,1-4.911.637,12.461,12.461,0,0,1-4.685-.842,10.549,10.549,0,0,1-3.575-2.322,9.98,9.98,0,0,1-2.26-3.493,11.945,11.945,0,0,1-.781-4.356A11.366,11.366,0,0,1,138.2.008a14.05,14.05,0,0,1,3.082-4.089,21.83,21.83,0,0,1,4.561-3.205,47.349,47.349,0,0,1,5.527-2.507q2.918-1.109,6.02-1.972t6.061-1.6v-2.753a18.621,18.621,0,0,0-.6-5.075,8.667,8.667,0,0,0-1.705-3.349,6.261,6.261,0,0,0-2.692-1.829,10.7,10.7,0,0,0-3.555-.555,9.61,9.61,0,0,0-3.616.575,5.621,5.621,0,0,0-2.2,1.52A5.116,5.116,0,0,0,148-22.675a10.555,10.555,0,0,0-.288,2.445,12.994,12.994,0,0,1-.185,2.219,5.235,5.235,0,0,1-.678,1.87,3.782,3.782,0,0,1-1.336,1.294,4.226,4.226,0,0,1-2.157.493,4.393,4.393,0,0,1-1.87-.39,4.383,4.383,0,0,1-1.459-1.089,4.873,4.873,0,0,1-.945-1.644,6.214,6.214,0,0,1-.329-2.055,6.59,6.59,0,0,1,1.438-4.068,12.543,12.543,0,0,1,3.863-3.267,22.241,22.241,0,0,1,5.671-2.178,28.371,28.371,0,0,1,6.821-.8A27.578,27.578,0,0,1,163.9-29a13.144,13.144,0,0,1,4.849,2.363,8.7,8.7,0,0,1,2.671,3.7,13.52,13.52,0,0,1,.822,4.808Zm-8.794-25.724q-1.89.616-3.924,1.4t-3.986,1.746a38.963,38.963,0,0,0-3.719,2.1,20.4,20.4,0,0,0-3.1,2.4A11.046,11.046,0,0,0,146.6-.177a6.2,6.2,0,0,0-.781,3,8.019,8.019,0,0,0,.6,3.061A8.6,8.6,0,0,0,148,8.432a7.553,7.553,0,0,0,2.281,1.726,6.024,6.024,0,0,0,2.692.637,9.983,9.983,0,0,0,2.815-.39,14.042,14.042,0,0,0,2.589-1.048,22.5,22.5,0,0,0,2.507-1.541q1.253-.883,2.568-1.87Zm51.736,21.409a21.822,21.822,0,0,1-3.287,2.2,25.294,25.294,0,0,1-3.678,1.644,26.024,26.024,0,0,1-3.863,1.048,20.4,20.4,0,0,1-3.8.37,15.265,15.265,0,0,1-7.294-1.808,19.426,19.426,0,0,1-5.917-4.89,23.872,23.872,0,0,1-3.986-7.15A25.25,25.25,0,0,1,181.9-6.3a21.23,21.23,0,0,1,.842-5.917,24.921,24.921,0,0,1,2.342-5.527,25.1,25.1,0,0,1,3.616-4.828,24.358,24.358,0,0,1,4.705-3.842,23.205,23.205,0,0,1,5.527-2.527,20.771,20.771,0,0,1,6.143-.9,13.2,13.2,0,0,1,5.63,1.13,18.1,18.1,0,0,1,4.479,2.979v-23.3l6.123-2.507h2.589V16.136h-8.712Zm0-25.806a11.485,11.485,0,0,0-.966-4.746,11.79,11.79,0,0,0-2.527-3.678,11.507,11.507,0,0,0-3.534-2.363,10.068,10.068,0,0,0-3.986-.842,9.667,9.667,0,0,0-4.911,1.315,12.9,12.9,0,0,0-3.986,3.657,18.56,18.56,0,0,0-2.692,5.609,24.728,24.728,0,0,0-.986,7.171,27.591,27.591,0,0,0,1.089,7.869,22.32,22.32,0,0,0,2.979,6.41,15.181,15.181,0,0,0,4.417,4.315,10.007,10.007,0,0,0,5.4,1.582,10.647,10.647,0,0,0,2.774-.37,14.423,14.423,0,0,0,2.63-.986,15.317,15.317,0,0,0,2.363-1.438,13.281,13.281,0,0,0,1.931-1.726Zm18.985-34.148,6.2-2.466h2.548v30.861a15.783,15.783,0,0,1,2.815-3.513,22.416,22.416,0,0,1,3.8-2.918,20.847,20.847,0,0,1,4.274-1.993,13.494,13.494,0,0,1,4.274-.74,16.052,16.052,0,0,1,7.088,1.562,17.427,17.427,0,0,1,5.568,4.233,19.661,19.661,0,0,1,3.657,6.246,21.966,21.966,0,0,1,1.315,7.643,27.357,27.357,0,0,1-.883,7.006,28.159,28.159,0,0,1-2.466,6.267,25.435,25.435,0,0,1-3.842,5.321,25,25,0,0,1-4.993,4.109,24.212,24.212,0,0,1-5.876,2.65,22.641,22.641,0,0,1-6.554.945,32.783,32.783,0,0,1-9.246-1.274,21.628,21.628,0,0,1-7.684-3.986ZM242.92,7.959a23.6,23.6,0,0,0,1.808,1.623,14.718,14.718,0,0,0,2.178,1.459,12.355,12.355,0,0,0,2.671,1.068,12.44,12.44,0,0,0,3.329.411,10.789,10.789,0,0,0,5.589-1.479,13.379,13.379,0,0,0,4.294-4.13A20.977,20.977,0,0,0,265.562.624a30.316,30.316,0,0,0,.986-7.951,18.528,18.528,0,0,0-1.007-6.164,16.132,16.132,0,0,0-2.753-4.993,13.213,13.213,0,0,0-4.109-3.349,10.728,10.728,0,0,0-5.034-1.233,12.162,12.162,0,0,0-3.061.411,14.617,14.617,0,0,0-3.02,1.151,15.2,15.2,0,0,0-2.65,1.726,10.554,10.554,0,0,0-1.993,2.1Zm73.515,7.232h-8.794V9.151q-1.561,1.192-3.061,2.424a25.313,25.313,0,0,1-3.246,2.26,17.575,17.575,0,0,1-3.863,1.664,17.084,17.084,0,0,1-4.911.637,12.461,12.461,0,0,1-4.685-.842,10.549,10.549,0,0,1-3.575-2.322,9.98,9.98,0,0,1-2.26-3.493,11.945,11.945,0,0,1-.781-4.356A11.366,11.366,0,0,1,282.39.008a14.049,14.049,0,0,1,3.082-4.089,21.831,21.831,0,0,1,4.561-3.205,47.351,47.351,0,0,1,5.527-2.507q2.918-1.109,6.02-1.972t6.061-1.6v-2.753a18.62,18.62,0,0,0-.6-5.075,8.667,8.667,0,0,0-1.705-3.349,6.261,6.261,0,0,0-2.692-1.829,10.7,10.7,0,0,0-3.555-.555,9.61,9.61,0,0,0-3.616.575,5.621,5.621,0,0,0-2.2,1.52,5.117,5.117,0,0,0-1.089,2.157,10.555,10.555,0,0,0-.288,2.445,13,13,0,0,1-.185,2.219,5.235,5.235,0,0,1-.678,1.87,3.782,3.782,0,0,1-1.336,1.294,4.226,4.226,0,0,1-2.157.493,4.393,4.393,0,0,1-1.87-.39,4.383,4.383,0,0,1-1.459-1.089,4.873,4.873,0,0,1-.945-1.644,6.214,6.214,0,0,1-.329-2.055,6.59,6.59,0,0,1,1.438-4.068,12.542,12.542,0,0,1,3.863-3.267,22.241,22.241,0,0,1,5.671-2.178,28.371,28.371,0,0,1,6.821-.8,27.578,27.578,0,0,1,7.356.842,13.144,13.144,0,0,1,4.849,2.363,8.7,8.7,0,0,1,2.671,3.7,13.52,13.52,0,0,1,.822,4.808Zm-8.794-25.724q-1.89.616-3.924,1.4t-3.986,1.746a38.967,38.967,0,0,0-3.719,2.1,20.405,20.405,0,0,0-3.1,2.4,11.045,11.045,0,0,0-2.116,2.712,6.2,6.2,0,0,0-.781,3,8.019,8.019,0,0,0,.6,3.061,8.6,8.6,0,0,0,1.582,2.548,7.553,7.553,0,0,0,2.281,1.726,6.024,6.024,0,0,0,2.692.637,9.983,9.983,0,0,0,2.815-.39,14.041,14.041,0,0,0,2.589-1.048,22.5,22.5,0,0,0,2.507-1.541q1.253-.883,2.568-1.87Zm20.505-18.409H336.9v8.054a29.437,29.437,0,0,1,8.3-6.719,18.891,18.891,0,0,1,8.794-2.24,9.334,9.334,0,0,1,4.335,1.048,11.251,11.251,0,0,1,3.534,2.856,14.094,14.094,0,0,1,2.383,4.253,15.179,15.179,0,0,1,.883,5.2V15.191h-8.794v-30.2q0-4.356-1.972-6.616a6.406,6.406,0,0,0-5.054-2.26,10.651,10.651,0,0,0-2.959.452,16.931,16.931,0,0,0-3.164,1.294,25.757,25.757,0,0,0-3.205,2.014,28.8,28.8,0,0,0-3.082,2.609v32.71h-8.753Zm78.281,39.819a21.82,21.82,0,0,1-3.287,2.2,25.294,25.294,0,0,1-3.678,1.644,26.024,26.024,0,0,1-3.863,1.048,20.4,20.4,0,0,1-3.8.37,15.265,15.265,0,0,1-7.294-1.808,19.426,19.426,0,0,1-5.917-4.89,23.872,23.872,0,0,1-3.986-7.15A25.25,25.25,0,0,1,373.143-6.3a21.23,21.23,0,0,1,.842-5.917,24.918,24.918,0,0,1,2.342-5.527,25.1,25.1,0,0,1,3.616-4.828,24.359,24.359,0,0,1,4.705-3.842,23.206,23.206,0,0,1,5.527-2.527,20.771,20.771,0,0,1,6.143-.9,13.2,13.2,0,0,1,5.63,1.13,18.1,18.1,0,0,1,4.479,2.979v-23.3l6.123-2.507h2.589V16.136h-8.712Zm0-25.806a11.485,11.485,0,0,0-.966-4.746,11.79,11.79,0,0,0-2.527-3.678,11.507,11.507,0,0,0-3.534-2.363,10.068,10.068,0,0,0-3.986-.842,9.667,9.667,0,0,0-4.911,1.315,12.9,12.9,0,0,0-3.986,3.657,18.56,18.56,0,0,0-2.692,5.609,24.729,24.729,0,0,0-.986,7.171A27.592,27.592,0,0,0,383.93-.937a22.32,22.32,0,0,0,2.979,6.41,15.181,15.181,0,0,0,4.417,4.315,10.007,10.007,0,0,0,5.4,1.582A10.648,10.648,0,0,0,399.5,11a14.423,14.423,0,0,0,2.63-.986A15.315,15.315,0,0,0,404.5,8.575a13.281,13.281,0,0,0,1.931-1.726Z" transform="translate(2734 -1534.406)" fill="#7c7d7f"/>
  </g>
</svg>
